# xmcd
#
# Track frame offsets: 
#        150
#        15467
#        30840
#        45765
#        61167
#        79307
#        99445
#        119137
#        132042
#        148067
#        164802
#
# Disc length: 2418 seconds
#
# Revision: 1
# Processed by: cddbd v1.5.1PL0 Copyright (c) Steve Scherf et al.
# Submitted via: ExactAudioCopy v0.95a5
#
DISCID=8909700b
DTITLE=Kenny Chesney - I Will Stand
DYEAR=1900
DGENRE=
TTITLE0=She's Got It All
TTITLE1=You Win, I Win, We Lose
TTITLE2=She Gets That Way
TTITLE3=I Will Stand
TTITLE4=That's Why I'm Here
TTITLE5=Steamy Windows
TTITLE6=From Hillbilly Heaven To Honky Tonk Hell
TTITLE7=She Always Says It First
TTITLE8=Lonely, Needin' Lonvin'
TTITLE9=A Chance
TTITLE10=When I Close My Eyes (Acoustic Version)
EXTD=
EXTT0=
EXTT1=
EXTT2=
EXTT3=
EXTT4=
EXTT5=
EXTT6=Featuring George Jones and Tracy Lawrence
EXTT7=
EXTT8=
EXTT9=
EXTT10=
PLAYORDER=
